<svg width="27" height="27" viewBox="0 0 27 27" fill="none" xmlns="http://www.w3.org/2000/svg">
<path d="M10.4469 11.9855C8.77488 11.9855 7.42188 10.6325 7.42188 8.96055C7.42188 7.28855 8.77488 5.93555 10.4469 5.93555C12.1189 5.93555 13.4719 7.28855 13.4719 8.96055C13.4719 10.6325 12.1189 11.9855 10.4469 11.9855ZM10.4469 7.58555C9.68788 7.58555 9.07188 8.20155 9.07188 8.96055C9.07188 9.71955 9.68788 10.3355 10.4469 10.3355C11.2059 10.3355 11.8219 9.71955 11.8219 8.96055C11.8219 8.20155 11.2059 7.58555 10.4469 7.58555Z" fill="#F6F6F6"/>
<path d="M17.0469 25.1852H10.4469C4.47388 25.1852 1.92188 22.6332 1.92188 16.6602V10.0602C1.92188 4.08716 4.47388 1.53516 10.4469 1.53516H14.8469C15.2979 1.53516 15.6719 1.90916 15.6719 2.36016C15.6719 2.81116 15.2979 3.18516 14.8469 3.18516H10.4469C5.37587 3.18516 3.57188 4.98916 3.57188 10.0602V16.6602C3.57188 21.7312 5.37587 23.5352 10.4469 23.5352H17.0469C22.1179 23.5352 23.9219 21.7312 23.9219 16.6602V11.1602C23.9219 10.7092 24.2959 10.3352 24.7469 10.3352C25.1979 10.3352 25.5719 10.7092 25.5719 11.1602V16.6602C25.5719 22.6332 23.0199 25.1852 17.0469 25.1852Z" fill="#F6F6F6"/>
<path d="M23.9219 6.48496H17.8719C17.4209 6.48496 17.0469 6.11096 17.0469 5.65996C17.0469 5.20896 17.4209 4.83496 17.8719 4.83496H23.9219C24.3729 4.83496 24.7469 5.20896 24.7469 5.65996C24.7469 6.11096 24.3729 6.48496 23.9219 6.48496Z" fill="#F6F6F6"/>
<path d="M20.8953 9.51055C20.4443 9.51055 20.0703 9.13655 20.0703 8.68555V2.63555C20.0703 2.18455 20.4443 1.81055 20.8953 1.81055C21.3463 1.81055 21.7203 2.18455 21.7203 2.63555V8.68555C21.7203 9.13655 21.3463 9.51055 20.8953 9.51055Z" fill="#F6F6F6"/>
<path d="M3.48625 21.831C3.22225 21.831 2.95825 21.699 2.80425 21.468C2.55125 21.094 2.65025 20.577 3.02425 20.324L8.44725 16.683C9.63525 15.891 11.2742 15.979 12.3522 16.892L12.7152 17.211C13.2652 17.684 14.2002 17.684 14.7392 17.211L19.3152 13.284C20.4922 12.283 22.3183 12.283 23.4953 13.284L25.2882 14.824C25.6292 15.121 25.6732 15.638 25.3762 15.99C25.0792 16.331 24.5623 16.375 24.2102 16.078L22.4172 14.538C21.8672 14.065 20.9323 14.065 20.3932 14.538L15.8172 18.465C14.6512 19.466 12.8142 19.466 11.6372 18.465L11.2742 18.146C10.7682 17.717 9.93225 17.673 9.37125 18.058L3.95925 21.699C3.80525 21.787 3.64025 21.831 3.48625 21.831Z" fill="#F6F6F6"/>
</svg>
